<svg width="24" height="24" viewBox="0 0 24 24" fill="none" xmlns="http://www.w3.org/2000/svg">
<path d="M16.0443 20.9487L17.9698 19.087C18.2997 18.768 18.3702 18.2655 18.1407 17.8681L16.8915 15.7043C16.6763 15.3316 16.2467 15.1383 15.825 15.2246L13.9977 15.5986C13.6482 15.6701 13.2877 15.5508 13.0571 15.2785C12.5238 14.6488 11.5513 13.4549 11 12.5C10.4487 11.5452 9.90102 10.106 9.62229 9.32924C9.50179 8.99345 9.57876 8.62157 9.81546 8.35464L11.0529 6.95916C11.3385 6.63711 11.3859 6.16845 11.1707 5.79569L9.9215 3.63195C9.69206 3.23456 9.22162 3.04432 8.78044 3.17052L6.20538 3.90714C5.81855 4.0178 5.5377 4.35007 5.52509 4.75222C5.47748 6.27158 5.62486 10.19 7.96893 14.25C10.313 18.3101 13.6327 20.3969 14.9723 21.1153C15.3269 21.3055 15.7551 21.2284 16.0443 20.9487Z" stroke="#02123A" stroke-width="1.5"/>
</svg>
