<?xml version="1.0" encoding="utf-8"?>
<!-- Generator: Adobe Illustrator 25.2.0, SVG Export Plug-In . SVG Version: 6.00 Build 0)  -->
<svg version="1.1"
	 id="Layer_1" inkscape:version="1.0 (6e3e5246a0, 2020-05-07)" sodipodi:docname="Lisboa2020_CMYK_1.svg" xmlns:cc="http://creativecommons.org/ns#" xmlns:dc="http://purl.org/dc/elements/1.1/" xmlns:inkscape="http://www.inkscape.org/namespaces/inkscape" xmlns:rdf="http://www.w3.org/1999/02/22-rdf-syntax-ns#" xmlns:sodipodi="http://sodipodi.sourceforge.net/DTD/sodipodi-0.dtd" xmlns:svg="http://www.w3.org/2000/svg"
	 xmlns="http://www.w3.org/2000/svg" xmlns:xlink="http://www.w3.org/1999/xlink" x="0px" y="0px" viewBox="0 0 565.1 45.5"
	 style="enable-background:new 0 0 565.1 45.5;" xml:space="preserve">
<style type="text/css">
	.st0{fill:#B4191D;}
	.st1{fill:#81B13E;}
	.st2{fill:#3E95D4;}
	.st3{fill:#2C4390;}
	.st4{fill:#FFED00;}
	.st5{fill:#175F36;}
	.st6{fill:#222221;}
</style>
<g id="Layer_2">
</g>
<g id="Layer_1">
	
		<sodipodi:namedview  bordercolor="#666666" borderopacity="1" gridtolerance="10" guidetolerance="10" id="namedview41" inkscape:current-layer="Layer_1" inkscape:cx="283.95001" inkscape:cy="22.349994" inkscape:pageopacity="0" inkscape:pageshadow="2" inkscape:window-height="608" inkscape:window-maximized="0" inkscape:window-width="1236" inkscape:window-x="26" inkscape:window-y="23" inkscape:zoom="1.3388208" objecttolerance="10" pagecolor="#ffffff" showgrid="false">
		</sodipodi:namedview>
	<g id="g34">
		<path id="path2" class="st0" d="M179.3,27.3c0-9.7-7.6-17.3-17.6-17.3s-17.6,7.6-17.6,17.3c0,10,7.6,17.8,17.6,17.8
			S179.3,37.3,179.3,27.3 M172.8,27.3c0,7-5,12.3-11.1,12.3s-11.1-5.3-11.1-12.3c0-6.7,5-11.8,11.1-11.8S172.8,20.6,172.8,27.3
			 M142.9,20c0-6.4-5.1-10-11.1-10c-8.1,0-11.2,6.8-11.2,6.8l4.3,3c0,0,2.4-4.3,6.4-4.3c2.9,0,5.2,1.6,5.2,4.8
			c0,7.3-16.3,8.9-16.3,21.2c0,1,0.1,1.9,0.3,3H144v-9.3h-5.4v4.3H127C127.1,32.5,142.9,30.5,142.9,20"/>
		<path id="path4" class="st1" d="M215.3,10.1c0-5.7-4.4-10.1-10.4-10.1s-10.4,4.4-10.4,10.1c0,5.8,4.4,10.4,10.4,10.4
			S215.3,15.9,215.3,10.1 M210.2,10.1c0,3.5-2.4,6.1-5.3,6.1s-5.3-2.6-5.3-6.1c0-3.3,2.4-5.8,5.3-5.8S210.2,6.8,210.2,10.1
			 M179.5,20.1h14.3v-6.2h-4.2v2.4h-5c0.1-3.1,8.7-4.4,8.7-10.2c0-4.2-3.6-6.1-6.8-6.1c-5.2,0-7,4.3-7,4.3l3.4,2.3
			c0,0,1.3-2.3,3.2-2.3c1,0,2.1,0.4,2.1,2.1c0,3.4-8.9,4.4-8.9,11.7C179.3,18.7,179.4,19.4,179.5,20.1"/>
		<path id="path6" class="st2" d="M121,27.2c0-1.1-0.1-2.2-0.3-3.2c-1.4-8.2-8.1-14.2-17.1-14.2c-10.2,0-17.9,7.7-17.9,17.6
			c0,10.1,7.7,18,17.9,18c3.2,0,6.1-0.8,8.6-2.2l-3.1-5c-1.6,1-3.5,1.6-5.5,1.6c-6.2,0-11.3-5.4-11.3-12.5c0-6.8,5.1-12,11.3-12
			s11.3,5.2,11.3,12c0,0.7-0.1,2-0.1,2c-0.2,1.1-0.8,1.9-1.9,1.9c-1.1,0-1.9-0.8-1.9-1.9v-3.6c0-4.1-2.4-6.3-6.9-6.3
			c-3.9,0-6.5,2-6.5,2l1.6,3.2c0,0,2.3-1.1,4.4-1.1c1.2,0,2.2,0.5,2.2,1.7v0.5h-0.9c-2.4,0-8.3,0.7-8.3,5.2c0,3.1,2.4,4.8,5.1,4.8
			c3.3,0,4.6-2.6,4.6-2.6h0.1l0,0c1.4,3,4.8,3.3,6.6,3.3C117.6,36.4,121,32.8,121,27.2 M105.8,28.9c0,1.4-1.3,3.2-2.6,3.2
			c-1.1,0-1.7-0.6-1.7-1.6c0-1.4,2.1-1.9,3.8-1.9h0.5V28.9z M85,32.3c0-7.6-4.3-12.8-10.9-12.8c-5.1,0-7.3,3.6-7.3,3.6h-0.1
			c0,0,0.1-0.9,0.1-2.1V4.9H57v4.5h3.7v34.9h5.7v-1.5c0-1-0.1-1.8-0.1-1.8h0.1c0,0,2,3.9,7.3,3.9C80.2,45.1,85,40,85,32.3
			 M78.9,32.4c0,4.8-2.8,7.6-6.2,7.6c-4.1,0-6-3.7-6-7.5c0-5.4,3-7.7,6.1-7.7C76.4,24.7,78.9,27.8,78.9,32.4 M54,24.6h2.5v-4.5H41.4
			c-0.2,1-0.3,1.7-0.3,2.6c0,9.1,11.1,10.3,11.1,14.5c0,2-1.4,2.6-2.7,2.6c-2.3,0-4-2.8-4-2.8l-4.2,2.9c0,0,2.3,5.3,8.7,5.3
			c4,0,8.5-2.3,8.5-7.5c0-7.2-10.6-9-10.8-12.9H54V24.6z M27.2,44.5h13.1V40h-3.5V20.2H27v4.5h3.8V40h-3.5v4.5H27.2z M37.5,8.4
			c0-2.2-1.7-3.9-4-3.9s-4,1.7-4,3.9c0,2.2,1.7,4,4,4S37.5,10.6,37.5,8.4 M0,44.5h25.7V34.2h-5.4v5.3h-10V10.1h4.1v-5H0v5h4.1v29.8
			H0V44.5z"/>
		<rect id="rect8" x="408.3" y="5.1" class="st3" width="59" height="39.1"/>
		<path id="path10" class="st4" d="M438.3,10.8h1.7l-1.4,1l0.5,1.6l-1.4-1l-1.4,1l0.5-1.6l-1.4-1h1.7l0.5-1.6L438.3,10.8z
			 M437.8,35.7l-0.5,1.6h-1.7l1.4,1l-0.5,1.6l1.4-1l1.4,1l-0.5-1.6l1.4-1h-1.7L437.8,35.7z M444.9,35.5h1.7l-1.4,1l0.5,1.6l-1.4-1
			l-1.4,1l0.5-1.6l-1.4-1h1.7l0.5-1.6L444.9,35.5z M444.4,11l-0.5,1.6h-1.7l1.4,1l-0.5,1.6l1.4-1l1.4,1l-0.5-1.6l1.4-1h-1.7
			L444.4,11z M449.8,17.4h1.7l-1.4,1l0.5,1.6l-1.4-1l-1.4,1l0.5-1.6l-1.4-1h1.7l0.5-1.6L449.8,17.4z M449.3,29.2l-0.5,1.6H447l1.4,1
			l-0.5,1.6l1.4-1l1.4,1l-0.5-1.6l1.4-1h-1.7L449.3,29.2z M451.6,24h1.7l-1.4,1l0.5,1.6l-1.4-1l-1.4,1l0.5-1.6l-1.4-1h1.7l0.5-1.6
			L451.6,24z M431.1,11l-0.5,1.6h-1.7l1.4,1l-0.5,1.7l1.4-1l1.4,1l-0.5-1.7l1.4-1h-1.7L431.1,11z M426.9,17.5h1.7l-1.4,1l0.5,1.6
			l-1.4-1l-1.4,1l0.5-1.6l-1.4-1h1.7l0.5-1.6L426.9,17.5z M424.6,22.4l-0.5,1.6h-1.7l1.4,1l-0.5,1.6l1.4-1l1.4,1l-0.5-1.6l1.4-1
			h-1.7L424.6,22.4z M426.9,30.8h1.7l-1.4,1l0.5,1.6l-1.4-1l-1.4,1l0.5-1.6l-1.4-1h1.7l0.5-1.6L426.9,30.8z M431.2,34l-0.5,1.6H429
			l1.4,1l-0.5,1.6l1.4-1l1.4,1l-0.5-1.6l1.4-1h-1.7L431.2,34z"/>
		<path id="path12" class="st0" d="M279,40.6l8.8-7.5c0.9-0.7,1.6-1.4,2.2-2s1.1-1.2,1.5-1.7s0.7-1.1,0.8-1.6
			c0.2-0.5,0.3-1.1,0.3-1.6c0-1.3-0.4-2.2-1.2-2.9c-0.8-0.7-1.8-1-2.9-1c-1.2,0-2.2,0.3-3.1,1c-0.9,0.6-1.8,1.6-2.8,2.9l-3.2-2.5
			c0.6-0.9,1.2-1.6,1.9-2.3c0.6-0.7,1.3-1.2,2.1-1.7c0.7-0.5,1.6-0.8,2.5-1.1c0.9-0.2,1.9-0.4,3.1-0.4s2.4,0.2,3.4,0.6
			s1.9,0.9,2.7,1.6c0.7,0.7,1.3,1.5,1.7,2.4c0.4,0.9,0.6,2,0.6,3.1V26c0,1-0.1,1.9-0.4,2.7c-0.3,0.8-0.7,1.6-1.2,2.4
			s-1.2,1.5-2.1,2.3c-0.8,0.8-1.8,1.6-2.9,2.5l-5.3,4.4h12.2v4H279V40.6z"/>
		<path id="path14" class="st0" d="M313,40.1c1.3,0,2.4-0.2,3.5-0.7s2-1.1,2.7-1.9c0.8-0.8,1.3-1.8,1.8-2.9c0.4-1.1,0.6-2.3,0.6-3.5
			V31c0-1.2-0.2-2.4-0.6-3.5s-1-2.1-1.8-2.9s-1.7-1.5-2.8-2c-1.1-0.5-2.2-0.7-3.5-0.7s-2.4,0.2-3.5,0.7s-2,1.1-2.7,1.9
			c-0.8,0.8-1.3,1.8-1.8,2.9c-0.4,1.1-0.6,2.3-0.6,3.5V31c0,1.2,0.2,2.4,0.6,3.5s1,2.1,1.8,2.9s1.7,1.5,2.8,2
			C310.6,39.8,311.8,40.1,313,40.1 M313,44.2c-2,0-3.8-0.3-5.4-1s-3-1.6-4.2-2.8c-1.2-1.2-2.1-2.6-2.7-4.2c-0.7-1.6-1-3.3-1-5.1V31
			c0-1.8,0.3-3.5,1-5.1s1.6-3,2.8-4.2c1.2-1.2,2.6-2.2,4.2-2.9c1.6-0.7,3.4-1.1,5.4-1.1s3.8,0.3,5.4,1s3,1.6,4.2,2.8
			c1.2,1.2,2.1,2.6,2.7,4.2c0.7,1.6,1,3.3,1,5.1v0.1c0,1.8-0.3,3.5-1,5.1s-1.6,3-2.8,4.2c-1.2,1.2-2.6,2.2-4.2,2.9
			C316.8,43.8,314.9,44.2,313,44.2"/>
		<path id="path16" class="st0" d="M328.2,40.6l8.8-7.5c0.9-0.7,1.6-1.4,2.2-2s1.1-1.2,1.5-1.7s0.7-1.1,0.8-1.6
			c0.2-0.5,0.3-1.1,0.3-1.6c0-1.3-0.4-2.2-1.2-2.9c-0.8-0.7-1.8-1-2.9-1c-1.2,0-2.2,0.3-3.1,1c-0.9,0.6-1.8,1.6-2.8,2.9l-3.2-2.5
			c0.6-0.9,1.2-1.6,1.9-2.3c0.6-0.7,1.3-1.2,2.1-1.7c0.7-0.5,1.6-0.8,2.5-1.1c0.9-0.2,1.9-0.4,3.1-0.4s2.4,0.2,3.4,0.6
			s1.9,0.9,2.7,1.6c0.7,0.7,1.3,1.5,1.7,2.4c0.4,0.9,0.6,2,0.6,3.1V26c0,1-0.1,1.9-0.4,2.7c-0.3,0.8-0.7,1.6-1.2,2.4
			s-1.2,1.5-2.1,2.3c-0.8,0.8-1.8,1.6-2.9,2.5l-5.3,4.4h12.2v4h-18.5v-3.7L328.2,40.6z"/>
		<path id="path18" class="st0" d="M362.2,40.1c1.3,0,2.4-0.2,3.5-0.7s2-1.1,2.7-1.9c0.8-0.8,1.3-1.8,1.8-2.9
			c0.4-1.1,0.6-2.3,0.6-3.5V31c0-1.2-0.2-2.4-0.6-3.5s-1-2.1-1.8-2.9s-1.7-1.5-2.8-2c-1.1-0.5-2.2-0.7-3.5-0.7s-2.4,0.2-3.5,0.7
			s-2,1.1-2.7,1.9c-0.8,0.8-1.3,1.8-1.8,2.9c-0.4,1.1-0.6,2.3-0.6,3.5V31c0,1.2,0.2,2.4,0.6,3.5s1,2.1,1.8,2.9s1.7,1.5,2.8,2
			C359.8,39.8,360.9,40.1,362.2,40.1 M362.1,44.2c-2,0-3.8-0.3-5.4-1s-3-1.6-4.2-2.8c-1.2-1.2-2.1-2.6-2.7-4.2c-0.7-1.6-1-3.3-1-5.1
			V31c0-1.8,0.3-3.5,1-5.1s1.6-3,2.8-4.2c1.2-1.2,2.6-2.2,4.2-2.9c1.6-0.7,3.4-1.1,5.4-1.1s3.8,0.3,5.4,1s3,1.6,4.2,2.8
			c1.2,1.2,2.1,2.6,2.7,4.2c0.7,1.6,1,3.3,1,5.1v0.1c0,1.8-0.3,3.5-1,5.1s-1.6,3-2.8,4.2c-1.2,1.2-2.6,2.2-4.2,2.9
			C365.9,43.8,364.1,44.2,362.1,44.2"/>
		<path id="path20" class="st5" d="M326.8,12.3v-0.9c0.3-0.1,0.6-0.1,0.9-0.1V6.1c-0.3,0-0.7-0.1-0.9-0.1V5.1h3.2V6
			c-0.3,0.1-0.6,0.1-0.9,0.1v5.1h1.4c0-0.3,0.1-0.6,0.1-0.9h1v2H326.8z M323.1,7.7c-0.1-0.4-0.2-0.7-0.3-1.1l0,0
			c-0.1,0.4-0.2,0.8-0.3,1.2l-0.6,1.7h1.9L323.1,7.7z M323.6,12.3v-0.9c0.2,0,0.5-0.1,0.8-0.1l-0.3-0.9h-2.6l-0.3,0.9
			c0.2,0,0.5,0.1,0.8,0.1v0.9h-2.7v-0.9c0.2-0.1,0.4-0.1,0.6-0.1l2.2-6.2h1.7l2.2,6.2c0.2,0,0.4,0.1,0.6,0.1v0.9H323.6z M318.6,9.6
			V12c-0.7,0.3-1.6,0.4-2.5,0.4c-2.3,0-3.6-1.3-3.6-3.5c0-2.3,1.5-3.9,4-3.9c0.7,0,1.3,0.1,2,0.3v1.9h-1.1c-0.1-0.3-0.1-0.6-0.1-0.9
			c-0.3-0.1-0.6-0.1-0.9-0.1c-1.4,0-2.4,0.9-2.4,2.5c0,1.5,0.8,2.4,2.3,2.4c0.3,0,0.6,0,0.9-0.1V9.5c-0.3,0-0.6-0.1-0.9-0.1V8.5h2.9
			v0.9C319,9.5,318.8,9.5,318.6,9.6 M311.5,6.1v3.4c0,1.9-1.1,2.9-3,2.9c-2.3,0-2.8-1.2-2.8-2.6V6.1c-0.2,0-0.5-0.1-0.7-0.1V5.1h2.8
			V6c-0.2,0.1-0.5,0.1-0.8,0.1v3.6c0,0.9,0.3,1.5,1.5,1.5c1.1,0,1.5-0.4,1.5-1.7V6c-0.3,0-0.5-0.1-0.8-0.1V5h2.8v0.9
			C311.9,6.1,311.7,6.1,311.5,6.1 M303.5,7.2c0-0.3-0.1-0.6-0.1-0.9h-1.1v5.1c0.3,0,0.6,0.1,0.9,0.1v0.9H300v-0.9
			c0.3-0.1,0.6-0.1,0.9-0.1V6.3h-1.1c0,0.3-0.1,0.6-0.1,0.9h-1v-2h5.9v2H303.5z M295.3,6.2c-0.2,0-0.4,0-0.5,0v2.1
			c0.1,0,0.3,0,0.5,0c0.8,0,1.3-0.4,1.3-1.1C296.6,6.6,296.2,6.2,295.3,6.2 M296.7,12.3l-1.8-3h-0.2v2c0.2,0,0.4,0.1,0.7,0.1v0.9h-3
			v-0.9c0.3-0.1,0.6-0.1,0.9-0.1V6.1c-0.3,0-0.6-0.1-0.9-0.1V5.1h0.8c0.3,0,1.3,0,2.2,0c1.6,0,2.6,0.6,2.6,2c0,1-0.7,1.7-1.7,2
			c0.1,0.2,0.3,0.4,0.4,0.5l1.1,1.7c0.2,0,0.5,0.1,0.7,0.1v0.9H296.7z M288.6,6.3c-1,0-1.9,0.8-1.9,2.4c0,1.5,0.6,2.5,1.9,2.5
			c0.9,0,1.9-0.7,1.9-2.4C290.5,7.2,289.8,6.3,288.6,6.3 M288.5,12.5c-2.2,0-3.3-1.4-3.3-3.6c0-2.4,1.6-3.8,3.5-3.8s3.3,1.2,3.3,3.6
			C292,11,290.4,12.5,288.5,12.5 M281.8,6.2c-0.2,0-0.3,0-0.5,0v2.4c0.1,0,0.3,0,0.4,0c0.8,0,1.4-0.5,1.4-1.3
			C283.1,6.7,282.7,6.2,281.8,6.2 M281.8,9.8c-0.1,0-0.3,0-0.5,0v1.5c0.3,0,0.6,0.1,0.9,0.1v0.9H279v-0.9c0.3-0.1,0.6-0.1,0.9-0.1
			V6.1c-0.3,0-0.6-0.1-0.9-0.1V5.1h0.8c0.3,0,1.3,0,2,0c1.8,0,2.7,0.8,2.7,2.2C284.6,8.7,283.5,9.8,281.8,9.8"/>
		<path id="path22" class="st5" d="M257.4,5.3c-6.3,2.5-10.3,9.1-10.3,19.3v15.5c0,0,1.3-9.9,10.3-12.8V5.3z"/>
		<path id="path24" class="st0" d="M260.5,28.8c-3.7,0.7-9.1,3.7-10.7,7.8c7.9-9.6,24-0.3,24.8-18.4c0.2-5.7,0.2-12.8,0.2-12.8
			c-8.4,0.5-14.3,2.7-14.3,2.7V28.8z"/>
		<path id="path26" class="st5" d="M259.5,34c0,0-8.6,0.7-9.3,5.6c-0.6,3.8,9.3,3.9,9.3,3.9V34z"/>
		<path id="path28" class="st6" d="M475.5,39.7c-0.2-0.1-0.4-0.1-0.6-0.1c-0.5,0-0.8,0.2-1,0.5c-0.2,0.4-0.3,0.9-0.3,1.7
			c0,0.7,0.1,1.3,0.3,1.6c0.2,0.3,0.6,0.5,1,0.5c0.2,0,0.4,0,0.6-0.1c0.2-0.1,0.3-0.2,0.4-0.4v0.4h0.7c0-0.1,0-0.2,0-0.3
			c0-0.1,0-0.3,0-0.5v-5.2h-0.7v2.3C475.8,39.9,475.7,39.8,475.5,39.7 M475.7,40.5c0.1,0.2,0.2,0.7,0.2,1.2c0,0.6-0.1,1-0.2,1.2
			c-0.1,0.3-0.3,0.4-0.6,0.4s-0.5-0.1-0.6-0.4c-0.1-0.2-0.2-0.7-0.2-1.3c0-0.5,0.1-0.9,0.2-1.2c0.1-0.3,0.3-0.4,0.6-0.4
			C475.4,40.2,475.6,40.3,475.7,40.5 M478.4,40.4c0.1-0.2,0.3-0.3,0.6-0.3s0.4,0.1,0.6,0.2c0.1,0.2,0.2,0.4,0.2,0.7v0.4h-1.6
			C478.2,40.9,478.3,40.6,478.4,40.4 M479.8,42.5c0,0.3-0.1,0.5-0.3,0.6c-0.1,0.1-0.3,0.2-0.5,0.2c-0.3,0-0.5-0.1-0.6-0.3
			c-0.1-0.2-0.2-0.5-0.2-0.9v-0.2h2.3v-0.6c0-0.6-0.1-1-0.4-1.3c-0.2-0.3-0.6-0.4-1.1-0.4s-0.9,0.2-1.2,0.5
			c-0.2,0.3-0.4,0.9-0.4,1.6c0,0.8,0.1,1.4,0.4,1.7c0.2,0.3,0.6,0.5,1.2,0.5c0.4,0,0.8-0.1,1.1-0.4c0.3-0.2,0.4-0.6,0.4-1
			L479.8,42.5z M484.8,43.8c0.6,0,1-0.1,1.3-0.2s0.5-0.3,0.6-0.5s0.2-0.4,0.3-0.8c0.1-0.3,0.1-0.8,0.1-1.5c0-0.9,0-1.5-0.1-1.9
			c-0.1-0.3-0.2-0.6-0.4-0.8c-0.2-0.2-0.4-0.3-0.6-0.3c-0.2-0.1-0.6-0.1-1.1-0.1h-1.4v6L484.8,43.8L484.8,43.8z M484.2,38.5h0.8
			c0.3,0,0.6,0.1,0.8,0.2s0.3,0.3,0.4,0.5c0,0.1,0.1,0.3,0.1,0.6c0,0.3,0,0.7,0,1.1c0,0.6,0,1-0.1,1.3c0,0.3-0.1,0.5-0.2,0.7
			c-0.1,0.1-0.2,0.3-0.4,0.3c-0.2,0.1-0.4,0.1-0.7,0.1h-0.8v-4.8L484.2,38.5z M488.8,40.4c0.1-0.2,0.3-0.3,0.6-0.3s0.4,0.1,0.6,0.2
			c0.1,0.2,0.2,0.4,0.2,0.7v0.4h-1.6C488.6,40.9,488.7,40.6,488.8,40.4 M490.2,42.5c0,0.3-0.1,0.5-0.3,0.6c-0.1,0.1-0.3,0.2-0.5,0.2
			c-0.3,0-0.5-0.1-0.6-0.3c-0.1-0.2-0.2-0.5-0.2-0.9v-0.2h2.3v-0.6c0-0.6-0.1-1-0.4-1.3c-0.2-0.3-0.6-0.4-1.1-0.4s-0.9,0.2-1.2,0.5
			c-0.2,0.3-0.4,0.9-0.4,1.6c0,0.8,0.1,1.4,0.4,1.7c0.2,0.3,0.6,0.5,1.2,0.5c0.4,0,0.8-0.1,1.1-0.4c0.3-0.2,0.4-0.6,0.4-1
			L490.2,42.5z M491.9,43.6c0.2,0.2,0.6,0.3,1.1,0.3c0.4,0,0.8-0.1,1.1-0.3c0.3-0.2,0.4-0.5,0.4-0.9c0-0.3-0.1-0.5-0.2-0.6
			c-0.1-0.2-0.4-0.4-0.8-0.6l-0.7-0.3c-0.2-0.1-0.3-0.2-0.3-0.2c-0.1-0.1-0.1-0.2-0.1-0.3c0-0.2,0.1-0.3,0.2-0.4
			c0.1-0.1,0.3-0.1,0.5-0.1s0.4,0.1,0.5,0.2s0.2,0.3,0.2,0.5h0.8v-0.2c0-0.3-0.1-0.6-0.4-0.8c-0.2-0.2-0.6-0.3-1-0.3s-0.8,0.1-1,0.3
			c-0.3,0.2-0.4,0.5-0.4,0.9c0,0.2,0.1,0.4,0.2,0.5c0.1,0.1,0.3,0.3,0.6,0.4l0.8,0.4c0.2,0.1,0.4,0.2,0.5,0.3
			c0.1,0.1,0.1,0.2,0.1,0.3c0,0.2-0.1,0.3-0.2,0.4c-0.1,0.1-0.3,0.2-0.5,0.2s-0.4-0.1-0.5-0.2s-0.2-0.3-0.2-0.6h-0.8
			C491.6,43,491.7,43.4,491.9,43.6 M496.1,40.4c0.1-0.2,0.3-0.3,0.6-0.3s0.4,0.1,0.6,0.2c0.1,0.2,0.2,0.4,0.2,0.7v0.4h-1.6
			C495.9,40.9,496,40.6,496.1,40.4 M497.5,42.5c0,0.3-0.1,0.5-0.3,0.6c-0.1,0.1-0.3,0.2-0.5,0.2c-0.3,0-0.5-0.1-0.6-0.3
			c-0.1-0.2-0.2-0.5-0.2-0.9v-0.2h2.3v-0.6c0-0.6-0.1-1-0.4-1.3c-0.2-0.3-0.6-0.4-1.1-0.4s-0.9,0.2-1.2,0.5
			c-0.2,0.3-0.4,0.9-0.4,1.6c0,0.8,0.1,1.4,0.4,1.7c0.2,0.3,0.6,0.5,1.2,0.5c0.4,0,0.8-0.1,1.1-0.4c0.3-0.2,0.4-0.6,0.4-1
			L497.5,42.5z M502,43.8v-3.1c0-0.3-0.1-0.6-0.3-0.8c-0.2-0.2-0.5-0.3-0.8-0.3c-0.2,0-0.4,0-0.6,0.1c-0.2,0.1-0.3,0.2-0.5,0.4v-0.5
			H499c0,0.1,0,0.3,0,0.4s0,0.2,0,0.3v3.5h0.7v-2.4c0-0.5,0.1-0.8,0.2-1c0.1-0.2,0.3-0.3,0.6-0.3s0.4,0.1,0.5,0.2s0.2,0.4,0.2,0.8
			v2.7L502,43.8z M504.7,43.8l1.3-4.2h-0.8l-0.7,2.4v0.1c-0.1,0.4-0.2,0.8-0.3,1.1c0-0.2-0.1-0.4-0.1-0.6S504,42.2,504,42l-0.7-2.4
			h-0.8l1.3,4.2H504.7z M506.8,43.4c0.2,0.3,0.6,0.5,1.2,0.5c0.5,0,0.9-0.2,1.2-0.5c0.2-0.3,0.4-0.9,0.4-1.7c0-0.8-0.1-1.3-0.4-1.7
			c-0.2-0.3-0.6-0.5-1.2-0.5c-0.5,0-0.9,0.2-1.2,0.5s-0.4,0.9-0.4,1.7C506.4,42.5,506.5,43.1,506.8,43.4 M508.6,40.5
			c0.1,0.2,0.2,0.6,0.2,1.2s-0.1,1-0.2,1.2c-0.1,0.2-0.3,0.4-0.6,0.4s-0.5-0.1-0.6-0.4c-0.1-0.2-0.2-0.6-0.2-1.2s0.1-1,0.2-1.2
			c0.1-0.2,0.3-0.4,0.6-0.4C508.3,40.2,508.5,40.3,508.6,40.5 M511.1,37.9h-0.7v6h0.7V37.9z M513.8,43.8l1.3-4.2h-0.7l-0.7,2.4v0.1
			c-0.1,0.4-0.2,0.8-0.3,1.1c0-0.2-0.1-0.4-0.1-0.6s-0.1-0.4-0.1-0.6l-0.7-2.4h-0.8l1.3,4.2H513.8z M516.4,37.9h-0.7v0.8h0.7V37.9z
			 M516.4,39.7h-0.7v4.2h0.7V39.7z M518.1,39.7h-0.7c0,0.1,0,0.3,0,0.4s0,0.2,0,0.3v3.5h0.7v-2.4c0-0.5,0.1-0.8,0.2-1
			c0.1-0.2,0.3-0.3,0.6-0.3s0.4,0.1,0.5,0.2s0.2,0.4,0.2,0.8v2.7h0.7v-2.4c0-0.5,0.1-0.8,0.2-1c0.1-0.2,0.3-0.3,0.6-0.3
			s0.4,0.1,0.5,0.2s0.2,0.4,0.2,0.8v2.7h0.7v-3.2c0-0.3-0.1-0.6-0.3-0.8c-0.2-0.2-0.5-0.3-0.8-0.3s-0.5,0.1-0.7,0.2
			s-0.4,0.3-0.5,0.5c-0.1-0.2-0.2-0.4-0.4-0.5s-0.4-0.2-0.7-0.2c-0.2,0-0.4,0-0.6,0.1c-0.2,0.1-0.3,0.2-0.5,0.4L518.1,39.7z
			 M524.3,40.4c0.1-0.2,0.3-0.3,0.6-0.3s0.4,0.1,0.6,0.2c0.1,0.2,0.2,0.4,0.2,0.7v0.4h-1.6C524.1,40.9,524.2,40.6,524.3,40.4
			 M525.7,42.5c0,0.3-0.1,0.5-0.3,0.6c-0.1,0.1-0.3,0.2-0.5,0.2c-0.3,0-0.5-0.1-0.6-0.3c-0.1-0.2-0.2-0.5-0.2-0.9v-0.2h2.3v-0.6
			c0-0.6-0.1-1-0.4-1.3c-0.2-0.3-0.6-0.4-1.1-0.4s-0.9,0.2-1.2,0.5c-0.2,0.3-0.4,0.9-0.4,1.6c0,0.8,0.1,1.4,0.4,1.7
			c0.2,0.3,0.6,0.5,1.2,0.5c0.4,0,0.8-0.1,1.1-0.4c0.3-0.2,0.4-0.6,0.4-1L525.7,42.5z M530.1,43.8v-3.1c0-0.3-0.1-0.6-0.3-0.8
			c-0.2-0.2-0.5-0.3-0.8-0.3c-0.2,0-0.4,0-0.6,0.1c-0.2,0.1-0.3,0.2-0.5,0.4v-0.5h-0.7c0,0.1,0,0.3,0,0.4s0,0.2,0,0.3v3.5h0.7v-2.4
			c0-0.5,0.1-0.8,0.2-1c0.1-0.2,0.3-0.3,0.6-0.3s0.4,0.1,0.5,0.2s0.2,0.4,0.2,0.8v2.7L530.1,43.8z M531.3,38.8v0.8h-0.6v0.5h0.6v2.7
			c0,0.3,0.1,0.6,0.2,0.7c0.1,0.1,0.4,0.2,0.7,0.2c0.1,0,0.2,0,0.3,0s0.2,0,0.3-0.1v-0.5l0,0c-0.2,0-0.3,0-0.3,0
			c-0.2,0-0.3,0-0.4-0.1c-0.1-0.1-0.1-0.2-0.1-0.5V40h0.8v-0.3H532v-1.2L531.3,38.8z M533.7,43.4c0.2,0.3,0.6,0.5,1.2,0.5
			c0.5,0,0.9-0.2,1.2-0.5c0.2-0.3,0.4-0.9,0.4-1.7c0-0.8-0.1-1.3-0.4-1.7c-0.2-0.3-0.6-0.5-1.2-0.5c-0.5,0-0.9,0.2-1.2,0.5
			s-0.4,0.9-0.4,1.7C533.3,42.5,533.4,43.1,533.7,43.4 M535.5,40.5c0.1,0.2,0.2,0.6,0.2,1.2s-0.1,1-0.2,1.2
			c-0.1,0.2-0.3,0.4-0.6,0.4s-0.5-0.1-0.6-0.4c-0.1-0.2-0.2-0.6-0.2-1.2s0.1-1,0.2-1.2c0.1-0.2,0.3-0.4,0.6-0.4
			C535.2,40.2,535.4,40.3,535.5,40.5 M540.1,38.5h0.9c0.3,0,0.5,0.1,0.7,0.2c0.2,0.2,0.2,0.4,0.2,0.7c0,0.4-0.1,0.6-0.3,0.8
			c-0.2,0.2-0.5,0.3-0.9,0.3h-0.6L540.1,38.5z M539.3,37.9v6h0.8v-2.7h0.9c0.3,0,0.4,0.1,0.5,0.2s0.2,0.4,0.2,0.7c0,0.1,0,0.3,0,0.5
			c0,0.6,0,1.1,0.1,1.3h0.8c-0.1-0.2-0.1-0.4-0.1-0.6s0-0.4,0-0.6c0-0.1,0-0.1,0-0.3c0-0.1,0-0.2,0-0.3c0-0.4-0.1-0.7-0.2-0.9
			c-0.1-0.2-0.4-0.3-0.7-0.3c0.3-0.1,0.6-0.3,0.8-0.5s0.3-0.6,0.3-1c0-0.5-0.1-0.9-0.4-1.1c-0.3-0.2-0.8-0.3-1.4-0.3h-1.6
			L539.3,37.9z M544.4,40.4c0.1-0.2,0.3-0.3,0.6-0.3s0.4,0.1,0.6,0.2c0.1,0.2,0.2,0.4,0.2,0.7v0.4h-1.6
			C544.2,40.9,544.3,40.6,544.4,40.4 M545.8,42.5c0,0.3-0.1,0.5-0.3,0.6c-0.1,0.1-0.3,0.2-0.5,0.2c-0.3,0-0.5-0.1-0.6-0.3
			c-0.1-0.2-0.2-0.5-0.2-0.9v-0.2h2.3v-0.6c0-0.6-0.1-1-0.4-1.3c-0.2-0.3-0.6-0.4-1.1-0.4s-0.9,0.2-1.2,0.5
			c-0.2,0.3-0.4,0.9-0.4,1.6c0,0.8,0.1,1.4,0.4,1.7c0.2,0.3,0.6,0.5,1.2,0.5c0.4,0,0.8-0.1,1.1-0.4c0.3-0.2,0.4-0.6,0.4-1
			L545.8,42.5z M548.1,40.4c0.1-0.2,0.3-0.4,0.6-0.4s0.5,0.1,0.6,0.4s0.2,0.7,0.2,1.3c0,0.6-0.1,1-0.2,1.2c-0.1,0.3-0.4,0.4-0.7,0.4
			s-0.5-0.1-0.6-0.4c-0.1-0.2-0.2-0.7-0.2-1.2C547.9,41.1,548,40.7,548.1,40.4 M547.8,45.2c0.2,0.2,0.6,0.3,1,0.3
			c0.3,0,0.5,0,0.7-0.1s0.3-0.2,0.5-0.3c0.1-0.1,0.1-0.2,0.2-0.4c0-0.1,0.1-0.3,0.1-0.6v-3.7c0-0.2,0-0.3,0-0.4s0-0.2,0-0.3h-0.7
			v0.4c-0.1-0.2-0.3-0.3-0.4-0.4c-0.2-0.1-0.4-0.1-0.6-0.1c-0.5,0-0.8,0.2-1,0.5s-0.3,0.9-0.3,1.6c0,0.8,0.1,1.3,0.3,1.7
			c0.2,0.4,0.6,0.5,1.1,0.5c0.2,0,0.4,0,0.5-0.1c0.2-0.1,0.3-0.2,0.5-0.4V44c0,0.4-0.1,0.6-0.2,0.8c-0.1,0.1-0.3,0.2-0.6,0.2
			c-0.2,0-0.3-0.1-0.4-0.2c-0.1-0.1-0.2-0.3-0.2-0.5h-0.8C547.5,44.7,547.6,45,547.8,45.2 M552,37.9h-0.7v0.8h0.7V37.9z M552,39.7
			h-0.7v4.2h0.7V39.7z M553.2,43.4c0.2,0.3,0.6,0.5,1.2,0.5c0.5,0,0.9-0.2,1.2-0.5c0.2-0.3,0.4-0.9,0.4-1.7c0-0.8-0.1-1.3-0.4-1.7
			c-0.2-0.3-0.6-0.5-1.2-0.5c-0.5,0-0.9,0.2-1.2,0.5c-0.2,0.3-0.4,0.9-0.4,1.7C552.9,42.5,553,43.1,553.2,43.4 M555.1,40.5
			c0.1,0.2,0.2,0.6,0.2,1.2s-0.1,1-0.2,1.2c-0.1,0.2-0.3,0.4-0.6,0.4s-0.5-0.1-0.6-0.4c-0.1-0.2-0.2-0.6-0.2-1.2s0.1-1,0.2-1.2
			c0.1-0.2,0.3-0.4,0.6-0.4C554.7,40.2,554.9,40.3,555.1,40.5 M559.7,43.8v-3.1c0-0.3-0.1-0.6-0.3-0.8c-0.2-0.2-0.5-0.3-0.8-0.3
			c-0.2,0-0.4,0-0.6,0.1c-0.2,0.1-0.3,0.2-0.5,0.4v-0.5h-0.7c0,0.1,0,0.3,0,0.4s0,0.2,0,0.3v3.5h0.7v-2.4c0-0.5,0.1-0.8,0.2-1
			c0.1-0.2,0.3-0.3,0.6-0.3s0.4,0.1,0.5,0.2s0.2,0.4,0.2,0.8v2.7H559.7z M561.3,40.7c0-0.2,0.1-0.4,0.2-0.5c0.1-0.1,0.3-0.2,0.6-0.2
			c0.2,0,0.4,0.1,0.5,0.2s0.1,0.4,0.1,0.7v0.2h-0.4c-0.6,0-1.1,0.1-1.4,0.4c-0.3,0.2-0.5,0.6-0.5,1.1c0,0.4,0.1,0.7,0.3,0.9
			c0.2,0.2,0.5,0.4,0.9,0.4c0.2,0,0.4,0,0.6-0.1c0.2-0.1,0.3-0.2,0.5-0.4v0.5h0.7c0-0.2,0-0.4-0.1-0.5c0-0.2,0-0.4,0-0.6v-1.9
			c0-0.4-0.1-0.7-0.3-0.9c-0.2-0.2-0.6-0.3-1.1-0.3s-0.9,0.1-1.1,0.3c-0.2,0.2-0.4,0.5-0.4,0.8v0.1L561.3,40.7z M562.8,42
			c0,0.4-0.1,0.7-0.2,0.9c-0.2,0.2-0.4,0.3-0.7,0.3c-0.2,0-0.3-0.1-0.5-0.2c-0.1-0.1-0.2-0.3-0.2-0.5c0-0.3,0.1-0.5,0.3-0.7
			c0.2-0.1,0.6-0.2,1.2-0.2V42L562.8,42z M565.1,37.9h-0.7v6h0.7V37.9z"/>
		<path id="path30" class="st6" d="M474.5,35.7V33h2v-0.7h-2v-1.9h2.1v-0.7h-2.9v6H474.5z M477.3,31.6v3.1c0,0.3,0.1,0.6,0.3,0.8
			c0.2,0.2,0.5,0.3,0.8,0.3c0.2,0,0.4,0,0.6-0.1c0.2-0.1,0.3-0.2,0.5-0.4v0.5h0.7c0-0.1,0-0.2,0-0.4c0-0.1,0-0.2,0-0.3v-3.5h-0.7V34
			c0,0.5-0.1,0.8-0.2,1c-0.1,0.2-0.3,0.3-0.6,0.3s-0.4-0.1-0.5-0.2c-0.1-0.2-0.2-0.4-0.2-0.8v-2.7L477.3,31.6z M484.1,35.7v-3.1
			c0-0.3-0.1-0.6-0.3-0.8c-0.2-0.2-0.5-0.3-0.8-0.3c-0.2,0-0.4,0-0.6,0.1c-0.2,0.1-0.3,0.2-0.5,0.4v-0.5h-0.7c0,0.1,0,0.3,0,0.4
			s0,0.2,0,0.3v3.5h0.7v-2.4c0-0.5,0.1-0.8,0.2-1c0.1-0.2,0.3-0.3,0.6-0.3s0.4,0.1,0.5,0.2s0.2,0.4,0.2,0.8v2.7L484.1,35.7z
			 M486.8,31.6c-0.2-0.1-0.4-0.1-0.6-0.1c-0.5,0-0.8,0.2-1,0.5c-0.2,0.4-0.3,0.9-0.3,1.7c0,0.7,0.1,1.3,0.3,1.6
			c0.2,0.3,0.6,0.5,1,0.5c0.2,0,0.4,0,0.6-0.1c0.2-0.1,0.3-0.2,0.4-0.4v0.4h0.7c0-0.1,0-0.2,0-0.3c0-0.1,0-0.3,0-0.5v-5.2h-0.7V32
			C487.1,31.8,487,31.7,486.8,31.6 M487,32.4c0.1,0.2,0.2,0.7,0.2,1.2c0,0.6-0.1,1-0.2,1.2c-0.1,0.3-0.3,0.4-0.6,0.4
			s-0.5-0.1-0.6-0.4c-0.1-0.2-0.2-0.7-0.2-1.3c0-0.5,0.1-0.9,0.2-1.2c0.1-0.3,0.3-0.4,0.6-0.4C486.7,32.1,486.9,32.2,487,32.4
			 M489.2,35.3c0.2,0.3,0.6,0.5,1.2,0.5c0.5,0,0.9-0.2,1.2-0.5c0.2-0.3,0.4-0.9,0.4-1.7c0-0.8-0.1-1.3-0.4-1.7
			c-0.2-0.3-0.6-0.5-1.2-0.5c-0.5,0-0.9,0.2-1.2,0.5s-0.4,0.9-0.4,1.7C488.8,34.4,488.9,35,489.2,35.3 M491,32.4
			c0.1,0.2,0.2,0.6,0.2,1.2s-0.1,1-0.2,1.2c-0.1,0.2-0.3,0.4-0.6,0.4s-0.5-0.1-0.6-0.4c-0.1-0.2-0.2-0.6-0.2-1.2s0.1-1,0.2-1.2
			c0.1-0.2,0.3-0.4,0.6-0.4C490.7,32.1,490.9,32.2,491,32.4 M497.8,35.7V35h-2.2v-2.1h2.1v-0.7h-2.1v-1.9h2.2v-0.7h-3v6h3V35.7z
			 M498.6,31.6v3.1c0,0.3,0.1,0.6,0.3,0.8c0.2,0.2,0.5,0.3,0.8,0.3c0.2,0,0.4,0,0.6-0.1c0.2-0.1,0.3-0.2,0.5-0.4v0.5h0.7
			c0-0.1,0-0.2,0-0.4c0-0.1,0-0.2,0-0.3v-3.5h-0.7V34c0,0.5-0.1,0.8-0.2,1c-0.1,0.2-0.3,0.3-0.6,0.3s-0.4-0.1-0.5-0.2
			c-0.1-0.2-0.2-0.4-0.2-0.8v-2.7L498.6,31.6z M502.4,31.6c0,0.1,0,0.1,0,0.2c0,0.3,0,0.4,0,0.5v3.5h0.7v-2.5c0-0.4,0.1-0.6,0.2-0.8
			c0.2-0.2,0.4-0.2,0.8-0.2c0,0,0,0,0.1,0h0.1v-0.7c0,0,0,0-0.1,0c0,0,0,0-0.1,0c-0.3,0-0.5,0.1-0.7,0.2s-0.3,0.3-0.4,0.5l-0.1-0.5
			h-0.5V31.6z M505.1,35.3c0.2,0.3,0.6,0.5,1.2,0.5c0.5,0,0.9-0.2,1.2-0.5c0.2-0.3,0.4-0.9,0.4-1.7c0-0.8-0.1-1.3-0.4-1.7
			c-0.2-0.3-0.6-0.5-1.2-0.5c-0.5,0-0.9,0.2-1.2,0.5s-0.4,0.9-0.4,1.7C504.7,34.4,504.8,35,505.1,35.3 M506.9,32.4
			c0.1,0.2,0.2,0.6,0.2,1.2s-0.1,1-0.2,1.2c-0.1,0.2-0.3,0.4-0.6,0.4s-0.5-0.1-0.6-0.4c-0.1-0.2-0.2-0.6-0.2-1.2s0.1-1,0.2-1.2
			c0.1-0.2,0.3-0.4,0.6-0.4S506.8,32.2,506.9,32.4 M509.6,32.4c0.1-0.3,0.3-0.4,0.6-0.4s0.5,0.1,0.6,0.4c0.1,0.2,0.2,0.7,0.2,1.3
			c0,0.6-0.1,1-0.2,1.2c-0.1,0.3-0.3,0.4-0.6,0.4s-0.5-0.1-0.6-0.4s-0.2-0.6-0.2-1.2S509.4,32.6,509.6,32.4 M509.4,37.3v-2.1
			c0.1,0.2,0.3,0.3,0.4,0.4c0.2,0.1,0.4,0.1,0.6,0.1c0.5,0,0.8-0.2,1-0.5c0.2-0.4,0.3-0.9,0.3-1.7c0-0.7-0.1-1.3-0.3-1.6
			c-0.2-0.3-0.6-0.5-1-0.5c-0.2,0-0.4,0-0.5,0.1c-0.2,0.1-0.3,0.2-0.4,0.4v-0.4h-0.7c0,0.1,0,0.2,0,0.3c0,0.1,0,0.3,0,0.5v5
			L509.4,37.3z M513.4,32.3c0.1-0.2,0.3-0.3,0.6-0.3s0.4,0.1,0.6,0.2c0.1,0.2,0.2,0.4,0.2,0.7v0.4h-1.6
			C513.2,32.8,513.3,32.5,513.4,32.3 M514.8,34.4c0,0.3-0.1,0.5-0.3,0.6c-0.1,0.1-0.3,0.2-0.5,0.2c-0.3,0-0.5-0.1-0.6-0.3
			c-0.1-0.2-0.2-0.5-0.2-0.9v-0.2h2.3v-0.6c0-0.6-0.1-1-0.4-1.3c-0.2-0.3-0.6-0.4-1.1-0.4s-0.9,0.2-1.2,0.5
			c-0.2,0.3-0.4,0.9-0.4,1.6c0,0.8,0.1,1.4,0.4,1.7c0.2,0.3,0.6,0.5,1.2,0.5c0.4,0,0.8-0.1,1.1-0.4c0.3-0.2,0.4-0.6,0.4-1
			L514.8,34.4z M516.3,31.6v3.1c0,0.3,0.1,0.6,0.3,0.8c0.2,0.2,0.5,0.3,0.8,0.3c0.2,0,0.4,0,0.6-0.1c0.2-0.1,0.3-0.2,0.5-0.4v0.5
			h0.7c0-0.1,0-0.2,0-0.4c0-0.1,0-0.2,0-0.3v-3.5h-0.7V34c0,0.5-0.1,0.8-0.2,1c-0.1,0.2-0.3,0.3-0.6,0.3s-0.4-0.1-0.5-0.2
			c-0.1-0.2-0.2-0.4-0.2-0.8v-2.7L516.3,31.6z"/>
		<path id="path32" class="st6" d="M473.8,5.5v3.6v0.2c0,0.5,0,0.8,0.1,1s0.1,0.4,0.3,0.6s0.4,0.4,0.6,0.5c0.2,0.1,0.5,0.2,0.9,0.2
			c0.7,0,1.1-0.2,1.4-0.5c0.3-0.4,0.4-1,0.4-1.8V5.6h-0.8v3.7v0.1c0,0.3,0,0.6,0,0.7s-0.1,0.3-0.1,0.4c-0.1,0.2-0.2,0.3-0.4,0.4
			s-0.3,0.1-0.6,0.1c-0.2,0-0.4,0-0.6-0.1c-0.2-0.1-0.3-0.2-0.4-0.4c-0.1-0.1-0.1-0.2-0.1-0.4c0-0.1,0-0.4,0-0.7V5.5L473.8,5.5z
			 M479.7,5.5h-1.1v6h0.7V7.2c0-0.1,0-0.3,0-0.5s0-0.4,0-0.7l2.3,5.4h1.1v-6H482v4.2c0,0.2,0,0.4,0,0.5c0,0.2,0,0.4,0,0.6L479.7,5.5
			z M484.5,5.5h-0.8v6h0.8V5.5z M487.5,6.4l0.8,2.9h-1.7L487.5,6.4z M489.8,11.4l-1.8-6h-1l-1.9,6h0.9l0.4-1.5h2.1l0.4,1.5H489.8z
			 M488.2,3.8c0,0.1-0.1,0.2-0.1,0.2c-0.1,0-0.1,0.1-0.2,0.1c0,0,0,0-0.1,0h-0.1L487.3,4h-0.1h-0.1c-0.2,0-0.4,0.1-0.5,0.2
			s-0.2,0.3-0.3,0.6h0.3c0-0.1,0.1-0.2,0.1-0.2s0.1-0.1,0.2-0.1h0.1h0.1l0.4,0.1h0.1h0.1c0.2,0,0.4-0.1,0.5-0.2s0.2-0.4,0.3-0.6
			H488.2z M494.1,6.7c-0.1-0.3-0.2-0.6-0.4-0.8c-0.2-0.2-0.4-0.3-0.6-0.4c-0.2-0.1-0.5-0.1-0.8-0.1c-0.4,0-0.7,0.1-1,0.2
			s-0.5,0.3-0.6,0.6c-0.1,0.2-0.2,0.4-0.2,0.8c0,0.3-0.1,0.8-0.1,1.5c0,0.8,0,1.4,0.1,1.7c0.1,0.3,0.2,0.6,0.4,0.8
			c0.2,0.2,0.4,0.3,0.6,0.4c0.2,0.1,0.5,0.1,0.8,0.1c0.4,0,0.7-0.1,1-0.2s0.5-0.3,0.6-0.6c0.1-0.2,0.2-0.5,0.2-0.8s0.1-0.8,0.1-1.4
			C494.2,7.7,494.1,7.1,494.1,6.7 M493.1,10.4c-0.2,0.3-0.4,0.4-0.9,0.4c-0.2,0-0.4,0-0.6-0.1c-0.2-0.1-0.3-0.2-0.4-0.4
			c-0.1-0.1-0.1-0.3-0.1-0.6c0-0.2,0-0.7,0-1.3c0-0.7,0-1.2,0.1-1.4c0-0.2,0.1-0.4,0.2-0.6c0.1-0.1,0.2-0.2,0.3-0.3
			C491.8,6,492,6,492.2,6c0.4,0,0.7,0.1,0.9,0.4s0.2,1,0.2,2C493.4,9.5,493.3,10.1,493.1,10.4 M500.2,11.4v-0.7H498v-2h2.1V8H498
			V6.1h2.2V5.4h-3v6L500.2,11.4z M501,5.5v3.6v0.2c0,0.5,0,0.8,0.1,1s0.1,0.4,0.3,0.6s0.4,0.4,0.6,0.5c0.2,0.1,0.5,0.2,0.9,0.2
			c0.7,0,1.1-0.2,1.4-0.5c0.3-0.4,0.4-1,0.4-1.8V5.6H504v3.7v0.1c0,0.3,0,0.6,0,0.7s-0.1,0.3-0.1,0.4c-0.1,0.2-0.2,0.3-0.4,0.4
			s-0.3,0.1-0.6,0.1c-0.2,0-0.4,0-0.6-0.1c-0.2-0.1-0.3-0.2-0.4-0.4c-0.1-0.1-0.1-0.2-0.1-0.4c0-0.1,0-0.4,0-0.7V5.5L501,5.5z
			 M506.6,6.1h0.9c0.3,0,0.5,0.1,0.7,0.2c0.2,0.2,0.2,0.4,0.2,0.7c0,0.4-0.1,0.6-0.3,0.8c-0.2,0.2-0.5,0.3-0.9,0.3h-0.6L506.6,6.1z
			 M505.8,5.5v6h0.8V8.7h0.9c0.3,0,0.4,0.1,0.5,0.2s0.2,0.4,0.2,0.7c0,0.1,0,0.3,0,0.5c0,0.6,0,1.1,0.1,1.3h0.8
			c-0.1-0.2-0.1-0.4-0.1-0.6s0-0.4,0-0.6c0-0.1,0-0.1,0-0.3c0-0.1,0-0.2,0-0.3c0-0.4-0.1-0.7-0.2-0.9c-0.1-0.2-0.4-0.3-0.7-0.3
			c0.3-0.1,0.6-0.3,0.8-0.5s0.3-0.6,0.3-1c0-0.5-0.1-0.9-0.4-1.1c-0.3-0.2-0.8-0.3-1.4-0.3L505.8,5.5z M513.9,6.7
			c-0.1-0.3-0.2-0.6-0.4-0.8c-0.2-0.2-0.4-0.3-0.6-0.4c-0.2-0.1-0.5-0.1-0.8-0.1c-0.4,0-0.7,0.1-1,0.2s-0.5,0.3-0.6,0.6
			c-0.1,0.2-0.2,0.4-0.2,0.8c0,0.3-0.1,0.8-0.1,1.5c0,0.8,0,1.4,0.1,1.7c0.1,0.3,0.2,0.6,0.4,0.8c0.2,0.2,0.4,0.3,0.6,0.4
			c0.2,0.1,0.5,0.1,0.8,0.1c0.4,0,0.7-0.1,1-0.2s0.5-0.3,0.6-0.6c0.1-0.2,0.2-0.5,0.2-0.8s0.1-0.8,0.1-1.4
			C514.1,7.7,514,7.1,513.9,6.7 M513,10.4c-0.2,0.3-0.4,0.4-0.9,0.4c-0.2,0-0.4,0-0.6-0.1c-0.2-0.1-0.3-0.2-0.4-0.4
			C511,10.2,511,10,511,9.7c0-0.2,0-0.7,0-1.3c0-0.7,0-1.2,0.1-1.4c0-0.2,0.1-0.4,0.2-0.6c0.1-0.1,0.2-0.2,0.3-0.3
			c0.1-0.1,0.3-0.1,0.5-0.1c0.4,0,0.7,0.1,0.9,0.4s0.2,1,0.2,2C513.3,9.5,513.2,10.1,513,10.4 M516.7,6.1c0.3,0,0.6,0.1,0.7,0.2
			c0.1,0.1,0.2,0.4,0.2,0.7c0,0.4-0.1,0.6-0.2,0.8c-0.2,0.1-0.5,0.2-0.9,0.2h-0.6V6L516.7,6.1L516.7,6.1z M515.1,5.5v6h0.8V8.8h1
			c0.5,0,0.9-0.1,1.2-0.4c0.2-0.3,0.4-0.7,0.4-1.3c0-0.6-0.1-1-0.4-1.3c-0.3-0.2-0.7-0.4-1.3-0.4L515.1,5.5L515.1,5.5z M522.2,11.4
			v-0.7H520v-2h2.1V8H520V6.1h2.2V5.4h-3v6L522.2,11.4z M523.9,5.5h-0.8v6h0.8V5.5z M526.9,6.4l0.8,2.9H526L526.9,6.4z M529.2,11.4
			l-1.8-6h-0.9l-1.9,6h0.9l0.4-1.5h2.1l0.4,1.5H529.2z"/>
	</g>
</g>
</svg>
