<svg id="Layer_1" data-name="Layer 1" xmlns="http://www.w3.org/2000/svg" viewBox="0 0 357.54 100"><defs><style>.cls-1{fill:#afbde1;}.cls-2{fill:#a4becb;}.cls-3{fill:#b7dadb;}.cls-4{fill:#b1c8e1;}.cls-5{fill:#a599ca;}.cls-6{fill:#c4e1cd;}.cls-7{fill:#1d1d1b;}</style></defs><polygon class="cls-1" points="11.48 5.12 55.56 65.6 46.37 76.98 19.34 39.08 11.48 5.12"/><path class="cls-2" d="M98.77,5.12,46.37,77s8.46,10.8,17.95,0S90.88,40.2,90.88,40.2Z"/><polygon class="cls-3" points="62.66 5.12 84.07 71.68 77.26 98.93 55.57 27.79 62.66 5.12"/><path class="cls-4" d="M19.66,98.93H33.28L62.66,5.12s-6-10.7-14-1.16c-.38,1.55-29,95-29,95"/><polygon class="cls-5" points="19.66 98.93 0 15.63 11.48 5.12 27.37 73.74 19.66 98.93"/><polygon class="cls-6" points="98.77 5.12 111.17 15.1 91.76 98.93 77.26 98.93 98.77 5.12"/><path class="cls-7" d="M173.6,21.88A3.34,3.34,0,0,1,174,23a11.58,11.58,0,0,1,.07,1.51V48.44c0,2-.54,3.14-1.64,3.49a7,7,0,0,1-2.07.25,7.34,7.34,0,0,1-2-.21,3.25,3.25,0,0,1-1.12-.52,2,2,0,0,1-.61-.86,8.76,8.76,0,0,1-.21-2.24V33.93c-.72.89-1.77,2.31-3.14,4.24s-2.25,3.15-2.63,3.64l-.77,1a4.21,4.21,0,0,1-1.06.78,3.48,3.48,0,0,1-1.8.49,3.53,3.53,0,0,1-1.77-.45,4.09,4.09,0,0,1-1.14-.88l-.35-.48q-.85-1.06-3.4-4.58c-1.69-2.34-2.6-3.6-2.75-3.77V48.44a13.34,13.34,0,0,1-.06,1.48,3.41,3.41,0,0,1-.41,1.1c-.43.77-1.55,1.16-3.36,1.16S141,51.79,140.54,51a3,3,0,0,1-.41-1.12,14,14,0,0,1-.07-1.55V24.46a12.82,12.82,0,0,1,.07-1.48,3.37,3.37,0,0,1,.41-1.14c.43-.75,1.55-1.12,3.36-1.12a6.27,6.27,0,0,1,2,.28,2.57,2.57,0,0,1,1.09.58l.26.26L157,34.66q7.32-9.67,9.78-12.78c.48-.78,1.64-1.16,3.46-1.16s2.93.38,3.34,1.16"/><path class="cls-7" d="M196.62,20.29a15.26,15.26,0,0,1,11.06,4.6,15.37,15.37,0,0,1,4.7,11.43,16.44,16.44,0,0,1-4.48,11.62,14.49,14.49,0,0,1-11,4.8A14.91,14.91,0,0,1,185.76,48a15.66,15.66,0,0,1-4.59-11.28A17.33,17.33,0,0,1,182.46,30a15.39,15.39,0,0,1,3.45-5.23,16.14,16.14,0,0,1,4.94-3.32,14.52,14.52,0,0,1,5.77-1.2m-7.83,16.23a8.27,8.27,0,0,0,2.47,6.22,7.66,7.66,0,0,0,11,.06,8.18,8.18,0,0,0,2.46-6.24,8.31,8.31,0,0,0-2.48-6.29,7.84,7.84,0,0,0-5.53-2.36,7.72,7.72,0,0,0-5.51,2.38,8.34,8.34,0,0,0-2.45,6.23"/><path class="cls-7" d="M242,35.31a10.28,10.28,0,0,1-.41,14,9.43,9.43,0,0,1-7,2.9H223.27c-2,0-3.19-.54-3.53-1.63a7,7,0,0,1-.26-2.24V24.42a13.47,13.47,0,0,1,.06-1.51A3.32,3.32,0,0,1,220,21.8q.6-1.17,3.36-1.17h10.84a8.84,8.84,0,0,1,6.63,2.76,9.12,9.12,0,0,1,2.8,6.71A9,9,0,0,1,242,35.31m-5.08,6.33a4.55,4.55,0,0,0-.24-1.64,1.52,1.52,0,0,0-.79-.86,6.76,6.76,0,0,0-2.42-.34,3.69,3.69,0,0,1-2.32-.61,3,3,0,0,1-.78-2.47,3,3,0,0,1,.8-2.48,4.48,4.48,0,0,1,2.65-.6c1.15,0,1.83-.3,2.07-.9a7,7,0,0,0,.12-1.55,1.61,1.61,0,0,0-.71-1.51,4.24,4.24,0,0,0-2.13-.43h-6V44.56h7.05c1.81,0,2.72-1,2.72-2.92"/><path class="cls-7" d="M178.52,68.49c1.91.68,2.86,1.6,2.86,2.73a8,8,0,0,1-.52,2.09L172.68,97a5.17,5.17,0,0,1-.3.73,4.13,4.13,0,0,1-1.13,1.13,3.73,3.73,0,0,1-4.35,0,3.75,3.75,0,0,1-1.21-1.39l-5-14.71Q156,96.71,155.88,97a3.43,3.43,0,0,1-.38.73,5.63,5.63,0,0,1-.68.85,3.23,3.23,0,0,1-2.35,1,3.69,3.69,0,0,1-2.24-.64,3.58,3.58,0,0,1-1.17-1.28l-.3-.64-8.23-23.66a7.53,7.53,0,0,1-.47-2.09c0-1.13,1-2,2.86-2.68a6.78,6.78,0,0,1,2.24-.43,1.86,1.86,0,0,1,1.54.68,6.63,6.63,0,0,1,1,2.09l4.69,14.24,4.65-14a3.89,3.89,0,0,1,2.17-2.47,4.47,4.47,0,0,1,1.77-.3,3.84,3.84,0,0,1,3.22,2.09l4.91,14.8,4.69-14.33c.22-.65.41-1.14.55-1.45a2.61,2.61,0,0,1,.79-.92,2.3,2.3,0,0,1,1.43-.44,6,6,0,0,1,2,.42"/><path class="cls-7" d="M188,72.07a12.75,12.75,0,0,1,.07-1.47,3.59,3.59,0,0,1,.4-1.13c.4-.76,1.51-1.15,3.33-1.15,2,0,3.17.53,3.54,1.58a8.58,8.58,0,0,1,.21,2.22v23.7a13.06,13.06,0,0,1-.06,1.49,3.32,3.32,0,0,1-.41,1.11c-.4.77-1.5,1.15-3.32,1.15-2,0-3.16-.54-3.5-1.62a6.66,6.66,0,0,1-.26-2.17Z"/><path class="cls-7" d="M224.14,92.28a5.32,5.32,0,0,1,2.41.41,2.16,2.16,0,0,1,1,1.17,5.94,5.94,0,0,1,.28,2,7.08,7.08,0,0,1-.21,1.92,3.6,3.6,0,0,1-.52,1.11,1.7,1.7,0,0,1-.89.55,6.73,6.73,0,0,1-2.18.26H206.32a3.74,3.74,0,0,1-1.88-.51,3.61,3.61,0,0,1-1.88-3.37,2.9,2.9,0,0,1,.52-1.79L216.29,75.7h-9.8a13.93,13.93,0,0,1-1.52-.06,4.94,4.94,0,0,1-1.17-.37c-.82-.4-1.24-1.46-1.24-3.2s.39-2.92,1.16-3.32a3.51,3.51,0,0,1,1.12-.41,13.93,13.93,0,0,1,1.52-.06H223.5a3.86,3.86,0,0,1,3.26,1.87,3.94,3.94,0,0,1,.49,2,3,3,0,0,1-.51,1.83L213.52,92.28Z"/><path class="cls-7" d="M252.91,70.54l11.52,23.79a5.56,5.56,0,0,1,.72,2.17c0,1-.82,2-2.47,2.77a5.54,5.54,0,0,1-2.28.73,2.33,2.33,0,0,1-1.37-.38,2.76,2.76,0,0,1-.77-.81l-.65-1.28-2.22-4.61H243.58l-2.22,4.61c-.29.56-.5,1-.66,1.23a3,3,0,0,1-.77.79,2.18,2.18,0,0,1-1.36.41,5.61,5.61,0,0,1-2.28-.73c-1.65-.79-2.47-1.7-2.47-2.73a5.56,5.56,0,0,1,.72-2.17L246.05,70.5a3.69,3.69,0,0,1,1.43-1.58,3.74,3.74,0,0,1,2-.6,3.59,3.59,0,0,1,3.41,2.22m-3.45,10.23-2.81,5.84h5.67Z"/><path class="cls-7" d="M295.67,94.29a6.75,6.75,0,0,1,.65,2.21c0,1.08-.89,2-2.65,2.73a5.84,5.84,0,0,1-2.19.6,2.21,2.21,0,0,1-1.37-.41,3,3,0,0,1-.79-.83q-.42-.81-3.32-7.71l-1.33.08H279.3v4.82a13.26,13.26,0,0,1-.06,1.47,3.51,3.51,0,0,1-.4,1.13c-.4.77-1.51,1.15-3.33,1.15-2,0-3.15-.53-3.5-1.58a7.14,7.14,0,0,1-.25-2.21V72.07a13.26,13.26,0,0,1,.06-1.47,3.4,3.4,0,0,1,.41-1.13c.4-.76,1.5-1.15,3.32-1.15h9.21a11.82,11.82,0,0,1,7.29,2.73,10,10,0,0,1,2.82,3.58,11.42,11.42,0,0,1,1.1,5,10.57,10.57,0,0,1-3.19,7.93c.62,1.51,1.59,3.74,2.89,6.7M279.3,83.41h5.46a4.07,4.07,0,0,0,2.47-.93,3.84,3.84,0,0,0,0-5.65,4.1,4.1,0,0,0-2.56-1H279.3Z"/><path class="cls-7" d="M306.72,68.28l7.89,0a15.32,15.32,0,0,1,10.87,4.46,14.54,14.54,0,0,1,4.69,11,15.28,15.28,0,0,1-4.59,11.15,15,15,0,0,1-11.1,4.65h-7.8c-1.74,0-2.82-.35-3.24-1.07a5.5,5.5,0,0,1-.52-2.72V72a12.51,12.51,0,0,1,.07-1.49,3.59,3.59,0,0,1,.4-1.11c.4-.76,1.51-1.15,3.33-1.15M320.15,89.7A7.46,7.46,0,0,0,322.62,84a7.7,7.7,0,0,0-2.41-5.78,7.86,7.86,0,0,0-5.65-2.32h-4.09V92h4.14a8,8,0,0,0,5.54-2.28"/><path class="cls-7" d="M335.92,95.18a4,4,0,0,1-1.1-2.45q0-1.08,1.83-2.88a3.23,3.23,0,0,1,2.26-1c.79,0,1.9.71,3.32,2.13a6.4,6.4,0,0,0,1.71,1.39A4.06,4.06,0,0,0,346,93q4,0,4-3.24a1.9,1.9,0,0,0-1.09-1.64,7.79,7.79,0,0,0-2.7-1,23.2,23.2,0,0,1-3.5-1,22.76,22.76,0,0,1-3.5-1.56,7,7,0,0,1-2.7-2.83,9.38,9.38,0,0,1-1.09-4.67,9,9,0,0,1,2.79-6.55,10.29,10.29,0,0,1,7.61-2.79,15.59,15.59,0,0,1,4.67.66,8.78,8.78,0,0,1,2.92,1.35l1.07.81a3.33,3.33,0,0,1,1.32,2.08,4.71,4.71,0,0,1-1,2.35c-1,1.42-2,2.13-3,2.13a4.35,4.35,0,0,1-2.22-.85,5.92,5.92,0,0,1-.49-.43,5.63,5.63,0,0,0-.66-.55,4.25,4.25,0,0,0-2.28-.56,3.84,3.84,0,0,0-2.3.66,2.24,2.24,0,0,0,.17,3.73,6.46,6.46,0,0,0,2.71,1,35,35,0,0,1,3.53.79,22.62,22.62,0,0,1,3.54,1.3,6.26,6.26,0,0,1,2.71,2.67,9.3,9.3,0,0,1,1.09,4.67,10.33,10.33,0,0,1-1.11,4.88,8.39,8.39,0,0,1-2.9,3.26,13.19,13.19,0,0,1-7.37,2.26,14.24,14.24,0,0,1-3.8-.49,12.17,12.17,0,0,1-6.05-3.86Z"/></svg>